<svg width="20" height="22" viewBox="0 0 20 22" fill="none" xmlns="http://www.w3.org/2000/svg">
<path d="M13.5 2.62842H18C18.9 2.62842 19.5 3.1541 19.5 3.94263V5.25684H0V3.94263C0 3.1541 0.75 2.62842 1.5 2.62842H6C6.3 1.18279 7.95 0 9.75 0C11.55 0 13.2 1.18279 13.5 2.62842ZM7.5 2.62842H12C11.7 1.83989 10.65 1.31421 9.75 1.31421C8.85 1.31421 7.8 1.83989 7.5 2.62842ZM1.5 6.57105H18L16.65 19.8446C16.65 20.5017 15.9 21.0274 15.15 21.0274H4.35C3.6 21.0274 3 20.5017 2.85 19.8446L1.5 6.57105Z" fill="black"/>
</svg>
